<svg xmlns="http://www.w3.org/2000/svg" width="32" height="32" viewBox="0 0 32 32" fill="none">
  <!-- 底板（浅色 pegboard） -->
  <rect x="1" y="1" width="30" height="30" rx="6" fill="#f5f0ff" stroke="#d4c4f0" stroke-width="1"/>

  <!-- 拼豆珠子布局：3×3 网格 -->

  <!-- 第1行：(0,0) 紫, (1,0) 蓝, (2,0) 空 -->
  <g>
    <circle cx="7" cy="7" r="3.5" fill="#aa3bff"/>
    <ellipse cx="6" cy="6" rx="1.5" ry="1" fill="#d4aaff" opacity="0.5"/>
    <circle cx="7.5" cy="7.5" r="0.8" fill="#7a20d0"/>
  </g>
  <g>
    <circle cx="16" cy="7" r="3.5" fill="#47bfff"/>
    <ellipse cx="15" cy="6" rx="1.5" ry="1" fill="#a3e0ff" opacity="0.5"/>
    <circle cx="16.5" cy="7.5" r="0.8" fill="#2080c0"/>
  </g>

  <!-- 第2行：(0,1) 空, (1,1) 粉, (2,1) 黄 -->
  <g>
    <circle cx="16" cy="16" r="3.5" fill="#ff6bcb"/>
    <ellipse cx="15" cy="15" rx="1.5" ry="1" fill="#ffb8e5" opacity="0.5"/>
    <circle cx="16.5" cy="16.5" r="0.8" fill="#c03090"/>
  </g>
  <g>
    <circle cx="25" cy="16" r="3.5" fill="#ffc940"/>
    <ellipse cx="24" cy="15" rx="1.5" ry="1" fill="#ffe4a0" opacity="0.5"/>
    <circle cx="25.5" cy="16.5" r="0.8" fill="#c09020"/>
  </g>

  <!-- 第3行：(0,2) 绿, (1,2) 紫, (2,2) 空 -->
  <g>
    <circle cx="7" cy="25" r="3.5" fill="#59d98f"/>
    <ellipse cx="6" cy="24" rx="1.5" ry="1" fill="#a8f0c8" opacity="0.5"/>
    <circle cx="7.5" cy="25.5" r="0.8" fill="#30a060"/>
  </g>
  <g>
    <circle cx="16" cy="25" r="3.5" fill="#aa3bff"/>
    <ellipse cx="15" cy="24" rx="1.5" ry="1" fill="#d4aaff" opacity="0.5"/>
    <circle cx="16.5" cy="25.5" r="0.8" fill="#7a20d0"/>
  </g>
</svg>
